<svg width="20" height="20" viewBox="0 0 20 20" fill="none" xmlns="http://www.w3.org/2000/svg">
<path d="M3.49316 3.57404C3.49316 2.68381 3.49316 2.2387 3.67878 1.99333C3.84048 1.77957 4.08764 1.6473 4.3552 1.63132C4.66231 1.61299 5.03267 1.85989 5.77339 2.3537L15.4127 8.77988C16.0247 9.18791 16.3307 9.39193 16.4374 9.64907C16.5306 9.87389 16.5306 10.1266 16.4374 10.3514C16.3307 10.6085 16.0247 10.8125 15.4127 11.2206L5.77339 17.6467C5.03267 18.1405 4.66231 18.3875 4.3552 18.3691C4.08764 18.3531 3.84048 18.2209 3.67878 18.0071C3.49316 17.7617 3.49316 17.3166 3.49316 16.4264V3.57404Z" fill="#4BC25E"/>
</svg>
