<svg width="81" height="81" viewBox="0 0 81 81" fill="none" xmlns="http://www.w3.org/2000/svg">
<rect width="80.3159" height="80.3159" rx="4" fill="black"/>
<path d="M28.8027 33.7409L38.0778 40.2335C38.8289 40.7592 39.2044 41.0221 39.6129 41.1239C39.9737 41.2138 40.3511 41.2138 40.7119 41.1239C41.1204 41.0221 41.4959 40.7592 42.247 40.2335L51.5221 33.7409M34.2554 48.5085H46.0694C47.978 48.5085 48.9323 48.5085 49.6613 48.137C50.3026 47.8103 50.8239 47.289 51.1506 46.6477C51.5221 45.9187 51.5221 44.9644 51.5221 43.0558V35.7856C51.5221 33.877 51.5221 32.9227 51.1506 32.1938C50.8239 31.5525 50.3026 31.0312 49.6613 30.7044C48.9323 30.333 47.978 30.333 46.0694 30.333H34.2554C32.3468 30.333 31.3925 30.333 30.6635 30.7044C30.0222 31.0312 29.5009 31.5525 29.1742 32.1938C28.8027 32.9227 28.8027 33.877 28.8027 35.7856V43.0558C28.8027 44.9644 28.8027 45.9187 29.1742 46.6477C29.5009 47.289 30.0222 47.8103 30.6635 48.137C31.3925 48.5085 32.3468 48.5085 34.2554 48.5085Z" stroke="white" stroke-width="2.27193" stroke-linecap="round" stroke-linejoin="round"/>
</svg>
