<svg width="31" height="32" viewBox="0 0 31 32" fill="none" xmlns="http://www.w3.org/2000/svg">
<path d="M27.125 15.9948L11.625 15.9948M27.125 8.24479L11.625 8.24479M27.125 23.7448L11.625 23.7448M6.45833 15.9948C6.45833 16.7082 5.88003 17.2865 5.16667 17.2865C4.4533 17.2865 3.875 16.7082 3.875 15.9948C3.875 15.2814 4.4533 14.7031 5.16667 14.7031C5.88003 14.7031 6.45833 15.2814 6.45833 15.9948ZM6.45833 8.24479C6.45833 8.95816 5.88003 9.53646 5.16667 9.53646C4.4533 9.53646 3.875 8.95816 3.875 8.24479C3.875 7.53142 4.4533 6.95312 5.16667 6.95312C5.88003 6.95312 6.45833 7.53142 6.45833 8.24479ZM6.45833 23.7448C6.45833 24.4582 5.88003 25.0365 5.16667 25.0365C4.4533 25.0365 3.875 24.4582 3.875 23.7448C3.875 23.0314 4.4533 22.4531 5.16667 22.4531C5.88003 22.4531 6.45833 23.0314 6.45833 23.7448Z" stroke="#141414" stroke-width="2.27667" stroke-linecap="round" stroke-linejoin="round"/>
</svg>
