<svg width="88" height="48" viewBox="0 0 88 48" fill="none" xmlns="http://www.w3.org/2000/svg">
<rect x="1.2" y="1.2" width="85.6" height="45.6" rx="10.8" stroke="#FB4747" stroke-width="2.4"/>
<path d="M26.786 32.336H36.1657M17.4062 32.336H19.1515C19.6613 32.336 19.9162 32.336 20.1561 32.2784C20.3688 32.2273 20.5721 32.1431 20.7586 32.0288C20.9689 31.8999 21.1492 31.7196 21.5097 31.3591L34.6025 18.2663C35.4659 17.4029 35.4659 16.0031 34.6025 15.1397C33.7391 14.2763 32.3393 14.2763 31.4759 15.1397L18.3831 28.2326C18.0226 28.5931 17.8423 28.7733 17.7134 28.9837C17.5991 29.1702 17.5149 29.3735 17.4638 29.5862C17.4062 29.826 17.4062 30.081 17.4062 30.5908V32.336Z" stroke="#FB4747" stroke-width="2.4" stroke-linecap="round" stroke-linejoin="round"/>
<path d="M50.4812 17.4558C52.5309 17.4558 53.9729 18.5773 53.9839 20.2459C53.9729 21.6713 52.8845 22.7155 51.2602 22.9641V24.2182C52.4978 24.1464 53.7464 24.0359 54.9066 23.8646L55.0226 24.9586C52.0834 25.489 48.7795 25.5387 46.3817 25.5387L46.216 24.3343C47.2602 24.3343 48.4867 24.3287 49.774 24.2845V22.9751C48.1055 22.7431 46.9895 21.6934 47.0005 20.2459C46.9895 18.5773 48.4315 17.4558 50.4812 17.4558ZM48.1939 30.5276V26.605H49.6856V29.3066H57.7519V30.5276H48.1939ZM48.3817 20.2459C48.3707 21.2403 49.2491 21.8867 50.4812 21.8978C51.7298 21.8867 52.5751 21.2403 52.5862 20.2459C52.5751 19.2348 51.7298 18.5939 50.4812 18.5884C49.2491 18.5939 48.3707 19.2348 48.3817 20.2459ZM55.7685 27.5442V16.837H57.2491V21.4669H59.2436V22.7155H57.2491V27.5442H55.7685ZM72.8784 27.9144V29.1464H60.0662V27.9144H63.5634V25.4337H61.6242V20.9807H69.8452V19.0304H61.5966V17.8204H71.3093V22.1906H63.0994V24.2182H71.6353V25.4337H69.5137V27.9144H72.8784ZM65.0054 27.9144H68.0552V25.4337H65.0054V27.9144Z" fill="#FB4747"/>
</svg>
