<svg width="115" height="38" viewBox="0 0 115 38" fill="none" xmlns="http://www.w3.org/2000/svg">
<rect width="115" height="38" rx="4" fill="#141414"/>
<path d="M24.9985 26.3324H33.2471M16.75 26.3324H18.2847C18.7331 26.3324 18.9572 26.3324 19.1682 26.2818C19.3552 26.2369 19.534 26.1628 19.698 26.0623C19.883 25.9489 20.0415 25.7904 20.3585 25.4734L31.8724 13.9596C32.6316 13.2003 32.6316 11.9693 31.8724 11.2101C31.1131 10.4508 29.8821 10.4508 29.1228 11.2101L17.609 22.7239C17.292 23.0409 17.1335 23.1994 17.0201 23.3844C16.9196 23.5484 16.8455 23.7272 16.8006 23.9142C16.75 24.1252 16.75 24.3494 16.75 24.7977V26.3324Z" stroke="white" stroke-width="1.83301" stroke-linecap="round" stroke-linejoin="round"/>
<path d="M57.1839 11.826V22.2127H55.7033V18.3564H53.5099V17.1188H55.7033V15.6381H53.5099V14.4282H55.7033V11.826H57.1839ZM45.532 18.9862C46.0569 18.9862 46.6259 18.9807 47.2281 18.9751V14.1188H45.9132V12.9144H53.3497V14.1188H52.0182V18.8094C52.6038 18.7652 53.1839 18.7155 53.7309 18.6547L53.7972 19.7486C51.1121 20.174 47.9574 20.2238 45.7088 20.2348L45.532 18.9862ZM48.0624 25.5387V21.3785H49.5596V24.3232H57.5486V25.5387H48.0624ZM48.6701 18.953C49.3 18.9365 49.9464 18.9199 50.5928 18.8867V14.1188H48.6701V18.953ZM64.5259 14.0635C64.5259 15.8039 65.885 17.4171 68.0397 18.047L67.2938 19.2072C65.6585 18.7044 64.4209 17.6381 63.7855 16.268C63.1612 17.7376 61.9071 18.8978 60.2275 19.4503L59.4706 18.2845C61.6585 17.616 63.0176 15.9033 63.0286 14.0635V13.9088H59.8795V12.7099H67.6087V13.9088H64.5259V14.0635ZM61.7911 25.6492V20.0635H63.2441V21.6271H69.4817V20.0635H70.9568V25.6492H61.7911ZM63.2441 24.4448H69.4817V22.7928H63.2441V24.4448ZM69.4706 19.4061V11.826H70.9568V19.4061H69.4706ZM84.0778 11.826V17.5H86.3209V18.732H84.0778V25.826H82.6081V11.826H84.0778ZM73.0943 15.2293V14.0193H76.5474V12.0083H78.028V14.0193H81.3872V15.2293H73.0943ZM73.8126 19.5221C73.807 17.6105 75.2767 16.2624 77.2988 16.2624C79.2988 16.2624 80.7684 17.6105 80.7739 19.5221C80.7684 21.4392 79.2988 22.7707 77.2988 22.7762C75.2767 22.7707 73.807 21.4392 73.8126 19.5221ZM75.2325 19.5221C75.2214 20.732 76.0999 21.5442 77.2988 21.5387C78.4811 21.5442 79.3485 20.732 79.3595 19.5221C79.3485 18.3177 78.4811 17.4889 77.2988 17.4889C76.0999 17.4889 75.2214 18.3177 75.2325 19.5221ZM98.6352 11.826V25.826H97.1435V11.826H98.6352ZM87.1324 22.0746C90.8562 20.3066 92.6683 17.7818 92.9611 14.5166H87.812V13.3343H94.4749C94.4639 17.4282 92.7236 20.9807 87.9169 23.2735L87.1324 22.0746Z" fill="white"/>
</svg>
