<svg width="81" height="81" viewBox="0 0 81 81" fill="none" xmlns="http://www.w3.org/2000/svg">
<rect width="80.3159" height="80.3159" rx="4" fill="black"/>
<path d="M42.7842 51.196H38.0846M47.4838 35.9224C47.4838 34.0528 46.7411 32.2598 45.4191 30.9378C44.0971 29.6157 42.304 28.873 40.4344 28.873C38.5648 28.873 36.7718 29.6157 35.4498 30.9378C34.1278 32.2598 33.3851 34.0528 33.3851 35.9224C33.3851 39.553 32.4692 42.0388 31.4461 43.6831C30.5831 45.07 30.1516 45.7634 30.1674 45.9569C30.1849 46.1711 30.2303 46.2528 30.4029 46.3808C30.5588 46.4964 31.2615 46.4964 32.667 46.4964H48.2018C49.6073 46.4964 50.31 46.4964 50.4659 46.3808C50.6385 46.2528 50.6839 46.1711 50.7014 45.9569C50.7172 45.7634 50.2857 45.07 49.4227 43.6831C48.3996 42.0388 47.4838 39.553 47.4838 35.9224Z" stroke="white" stroke-width="2.34979" stroke-linecap="round" stroke-linejoin="round"/>
</svg>
