<svg width="25" height="25" viewBox="0 0 25 25" fill="none" xmlns="http://www.w3.org/2000/svg">
<rect width="25" height="25" rx="12.5" fill="#FFE24C"/>
<path fill-rule="evenodd" clip-rule="evenodd" d="M15.3401 11.6474C15.3401 13.6871 13.6866 15.3406 11.6469 15.3406C9.60724 15.3406 7.95375 13.6871 7.95375 11.6474C7.95375 9.60773 9.60724 7.95423 11.6469 7.95423C13.6866 7.95423 15.3401 9.60773 15.3401 11.6474ZM14.6366 15.4406C13.8143 16.0896 12.7758 16.477 11.6469 16.477C8.97964 16.477 6.81738 14.3147 6.81738 11.6474C6.81738 8.98013 8.97964 6.81787 11.6469 6.81787C14.3142 6.81787 16.4765 8.98013 16.4765 11.6474C16.4765 12.7763 16.0891 13.8148 15.4401 14.6371L18.0146 17.2116C18.2365 17.4334 18.2365 17.7932 18.0146 18.0151C17.7927 18.237 17.433 18.237 17.2111 18.0151L14.6366 15.4406Z" fill="#292929"/>
</svg>
