<svg width="58" height="42" viewBox="0 0 58 42" fill="none" xmlns="http://www.w3.org/2000/svg">
<rect x="16" y="7" width="40" height="27" rx="13.5" fill="#141414"/>
<path d="M31.616 13.8564V28H29.4613V16.011H29.3785L26.0014 18.2141V16.163L29.5166 13.8564H31.616ZM40.0284 28.1934C37.3419 28.1934 35.3322 26.5635 35.2425 24.3052H37.335C37.4386 25.5138 38.5919 26.3909 40.0284 26.3909C41.7411 26.3909 42.9704 25.1547 42.9704 23.4696C42.9704 21.75 41.6997 20.5 39.9317 20.4862C38.7853 20.4793 37.922 20.8591 37.4317 21.7293H35.4082L36.3336 13.8564H44.3447V15.7003H38.1154L37.632 19.6506H37.7701C38.364 19.0981 39.3516 18.7113 40.4289 18.7113C43.0947 18.7113 45.0629 20.6796 45.056 23.4213C45.0629 26.1975 42.9635 28.1934 40.0284 28.1934Z" fill="white"/>
</svg>
