<svg width="58" height="42" viewBox="0 0 58 42" fill="none" xmlns="http://www.w3.org/2000/svg">
<rect x="16" y="7" width="40" height="27" rx="13.5" fill="#141414"/>
<path d="M31.616 13.8564V28H29.4613V16.011H29.3785L26.0014 18.2141V16.163L29.5166 13.8564H31.616ZM40.132 28.2279C36.8654 28.2279 34.9386 25.5691 34.9455 20.9351C34.9455 16.3287 36.8861 13.663 40.132 13.663C43.3847 13.663 45.3253 16.3356 45.3253 20.9351C45.3253 25.5691 43.4055 28.2279 40.132 28.2279ZM37.0864 20.9351C37.0795 24.4641 38.2259 26.3771 40.132 26.3771C42.045 26.3771 43.1845 24.4641 43.1845 20.9351C43.1845 17.413 42.0311 15.4931 40.132 15.4931C38.2397 15.4931 37.0864 17.413 37.0864 20.9351Z" fill="white"/>
</svg>
