<svg width="58" height="42" viewBox="0 0 58 42" fill="none" xmlns="http://www.w3.org/2000/svg">
<rect x="16" y="7" width="40" height="27" rx="13.5" fill="#141414"/>
<path d="M31.616 13.8564V28H29.4613V16.011H29.3785L26.0014 18.2141V16.163L29.5166 13.8564H31.616ZM40.0836 13.663C42.6734 13.6837 45.4013 15.2445 45.4082 20.424C45.4082 25.3826 43.2742 28.1934 39.8834 28.1934C37.2798 28.1934 35.4566 26.5843 35.1251 24.2914H37.2452C37.5422 25.4793 38.4538 26.3149 39.8834 26.3149C42.0588 26.3149 43.3433 24.4088 43.3571 21.1768H43.1845C42.4179 22.3785 41.0919 23.0967 39.5657 23.0967C37.0311 23.0967 35.0008 21.1561 35.0008 18.4558C35.0008 15.7555 37.0035 13.6423 40.0836 13.663ZM37.0933 18.4213C37.1002 20.058 38.3226 21.3494 40.0422 21.3494C41.7411 21.3494 43.0671 19.9544 43.0671 18.3936C43.0671 16.8605 41.8101 15.4655 40.0836 15.4655C38.3709 15.4655 37.0795 16.7914 37.0933 18.4213Z" fill="white"/>
</svg>
