<svg width="58" height="42" viewBox="0 0 58 42" fill="none" xmlns="http://www.w3.org/2000/svg">
<rect x="16" y="7" width="40" height="27" rx="13.5" fill="#141414"/>
<path d="M31.616 13.8564V28H29.4613V16.011H29.3785L26.0014 18.2141V16.163L29.5166 13.8564H31.616ZM40.1527 28.1934C37.0864 28.1934 34.9386 26.529 34.9524 24.2293C34.9386 22.4199 36.2438 20.9351 37.9013 20.6657V20.5898C36.4579 20.2721 35.4842 18.9738 35.4842 17.4337C35.4842 15.2583 37.4524 13.663 40.1527 13.663C42.8253 13.663 44.7936 15.2583 44.8005 17.4337C44.7936 18.9807 43.806 20.2721 42.3903 20.5898V20.6657C44.0339 20.9351 45.3392 22.4199 45.353 24.2293C45.3392 26.529 43.1845 28.1934 40.1527 28.1934ZM37.1416 24.0843C37.1209 25.4793 38.288 26.4392 40.1527 26.4392C41.9897 26.4392 43.1637 25.4862 43.1637 24.0843C43.1637 22.634 41.893 21.5704 40.1527 21.5704C38.3985 21.5704 37.1209 22.634 37.1416 24.0843ZM37.5836 17.6202C37.5836 18.953 38.6472 19.8646 40.1527 19.8646C41.6306 19.8646 42.7079 18.953 42.7079 17.6202C42.7079 16.308 41.6651 15.4171 40.1527 15.4171C38.6057 15.4171 37.5836 16.308 37.5836 17.6202Z" fill="white"/>
</svg>
