<svg width="58" height="42" viewBox="0 0 58 42" fill="none" xmlns="http://www.w3.org/2000/svg">
<rect x="16" y="7" width="40" height="27" rx="13.5" fill="#141414"/>
<path d="M31.616 13.8564V28H29.4613V16.011H29.3785L26.0014 18.2141V16.163L29.5166 13.8564H31.616ZM35.2148 28L35.2079 26.4392L40.1113 21.4876C41.6651 19.8785 42.4386 18.9876 42.4455 17.7445C42.4386 16.3494 41.306 15.4655 39.8212 15.4655C38.2535 15.4655 37.2521 16.453 37.2521 17.9655H35.2079C35.201 15.3757 37.1693 13.663 39.8626 13.663C42.5905 13.663 44.4759 15.3895 44.4897 17.6823C44.4759 19.2638 43.73 20.5276 41.0781 23.1312L38.2052 26.0525V26.1561H44.7176V28H35.2148Z" fill="white"/>
</svg>
