<svg width="58" height="42" viewBox="0 0 58 42" fill="none" xmlns="http://www.w3.org/2000/svg">
<rect x="16" y="7" width="40" height="27" rx="13.5" fill="#141414"/>
<path d="M26.25 28L26.2431 26.4392L31.1464 21.4876C32.7003 19.8785 33.4738 18.9876 33.4807 17.7445C33.4738 16.3494 32.3412 15.4655 30.8564 15.4655C29.2887 15.4655 28.2873 16.453 28.2873 17.9655H26.2431C26.2362 15.3757 28.2044 13.663 30.8978 13.663C33.6257 13.663 35.5111 15.3895 35.5249 17.6823C35.5111 19.2638 34.7652 20.5276 32.1133 23.1312L29.2403 26.0525V26.1561H35.7528V28H26.25ZM43.0617 28.2279C39.7951 28.2279 37.8683 25.5691 37.8752 20.9351C37.8752 16.3287 39.8158 13.663 43.0617 13.663C46.3144 13.663 48.255 16.3356 48.255 20.9351C48.255 25.5691 46.3351 28.2279 43.0617 28.2279ZM40.0161 20.9351C40.0092 24.4641 41.1556 26.3771 43.0617 26.3771C44.9746 26.3771 46.1141 24.4641 46.1141 20.9351C46.1141 17.413 44.9608 15.4931 43.0617 15.4931C41.1694 15.4931 40.0161 17.413 40.0161 20.9351Z" fill="white"/>
</svg>
