<svg width="58" height="42" viewBox="0 0 58 42" fill="none" xmlns="http://www.w3.org/2000/svg">
<rect x="16" y="7" width="27" height="27" rx="13.5" fill="#141414"/>
<path d="M30.3605 28.1934C27.75 28.1727 25.0152 26.6257 25.0221 21.3978C25.0221 16.4738 27.1561 13.663 30.5401 13.663C33.1506 13.663 34.9599 15.2859 35.2914 17.5304H33.1713C32.8812 16.3771 31.9696 15.5414 30.5401 15.5414C28.3577 15.5414 27.087 17.4475 27.087 20.645H27.2459C28.0055 19.4365 29.3384 18.732 30.8785 18.732C33.3992 18.732 35.4296 20.6657 35.4296 23.3729C35.4296 26.1077 33.4061 28.2141 30.3605 28.1934ZM27.3494 23.4351C27.3494 24.9959 28.6064 26.3909 30.3536 26.3909C32.0594 26.3909 33.337 25.0649 33.3439 23.4075C33.337 21.7914 32.1008 20.4724 30.395 20.4724C28.6754 20.4724 27.3633 21.8536 27.3494 23.4351Z" fill="white"/>
</svg>
