<svg width="58" height="42" viewBox="0 0 58 42" fill="none" xmlns="http://www.w3.org/2000/svg">
<rect x="16" y="7" width="27" height="27" rx="13.5" fill="#141414"/>
<path d="M29.2638 28.1934C26.3425 28.1934 24.2569 26.6188 24.1809 24.3052H26.3564C26.4323 25.5483 27.6685 26.3425 29.2431 26.3425C30.9558 26.3425 32.1989 25.4102 32.192 24.0428C32.1989 22.6409 31.0387 21.6395 29.0083 21.6395H27.8066V19.8854H29.0083C30.6243 19.8854 31.75 18.9876 31.75 17.634C31.75 16.3356 30.7831 15.4655 29.2914 15.4655C27.8688 15.4655 26.605 16.2528 26.5497 17.5304H24.4779C24.547 15.2307 26.6671 13.663 29.3122 13.663C32.0884 13.663 33.8425 15.424 33.8287 17.5235C33.8425 19.1188 32.8481 20.279 31.3287 20.645V20.7555C33.2486 21.0249 34.3743 22.3232 34.3605 24.1188C34.3743 26.4738 32.1989 28.1934 29.2638 28.1934Z" fill="white"/>
</svg>
