<svg width="58" height="42" viewBox="0 0 58 42" fill="none" xmlns="http://www.w3.org/2000/svg">
<rect x="16" y="7" width="40" height="27" rx="13.5" fill="#141414"/>
<path d="M31.616 13.8564V28H29.4613V16.011H29.3785L26.0014 18.2141V16.163L29.5166 13.8564H31.616ZM40.2287 28.1934C37.3074 28.1934 35.2217 26.6188 35.1458 24.3052H37.3212C37.3972 25.5483 38.6334 26.3425 40.2079 26.3425C41.9206 26.3425 43.1637 25.4102 43.1568 24.0428C43.1637 22.6409 42.0035 21.6395 39.9731 21.6395H38.7715V19.8854H39.9731C41.5892 19.8854 42.7148 18.9876 42.7148 17.634C42.7148 16.3356 41.748 15.4655 40.2563 15.4655C38.8336 15.4655 37.5698 16.2528 37.5146 17.5304H35.4427C35.5118 15.2307 37.632 13.663 40.277 13.663C43.0532 13.663 44.8074 15.424 44.7936 17.5235C44.8074 19.1188 43.8129 20.279 42.2936 20.645V20.7555C44.2135 21.0249 45.3392 22.3232 45.3253 24.1188C45.3392 26.4738 43.1637 28.1934 40.2287 28.1934Z" fill="white"/>
</svg>
