<svg width="58" height="42" viewBox="0 0 58 42" fill="none" xmlns="http://www.w3.org/2000/svg">
<rect x="16" y="7" width="27" height="27" rx="13.5" fill="#141414"/>
<path d="M30.1878 28.1934C27.1215 28.1934 24.9738 26.529 24.9876 24.2293C24.9738 22.4199 26.279 20.9351 27.9365 20.6657V20.5898C26.4931 20.2721 25.5193 18.9738 25.5193 17.4337C25.5193 15.2583 27.4876 13.663 30.1878 13.663C32.8605 13.663 34.8287 15.2583 34.8356 17.4337C34.8287 18.9807 33.8412 20.2721 32.4254 20.5898V20.6657C34.0691 20.9351 35.3743 22.4199 35.3881 24.2293C35.3743 26.529 33.2196 28.1934 30.1878 28.1934ZM27.1768 24.0843C27.1561 25.4793 28.3232 26.4392 30.1878 26.4392C32.0249 26.4392 33.1989 25.4862 33.1989 24.0843C33.1989 22.634 31.9282 21.5704 30.1878 21.5704C28.4337 21.5704 27.1561 22.634 27.1768 24.0843ZM27.6188 17.6202C27.6188 18.953 28.6823 19.8646 30.1878 19.8646C31.6657 19.8646 32.7431 18.953 32.7431 17.6202C32.7431 16.308 31.7003 15.4171 30.1878 15.4171C28.6409 15.4171 27.6188 16.308 27.6188 17.6202Z" fill="white"/>
</svg>
