<svg width="58" height="42" viewBox="0 0 58 42" fill="none" xmlns="http://www.w3.org/2000/svg">
<rect x="16" y="7" width="27" height="27" rx="13.5" fill="#141414"/>
<path d="M30.0635 28.1934C27.3771 28.1934 25.3674 26.5635 25.2776 24.3052H27.3702C27.4738 25.5138 28.6271 26.3909 30.0635 26.3909C31.7762 26.3909 33.0055 25.1547 33.0055 23.4696C33.0055 21.75 31.7348 20.5 29.9669 20.4862C28.8204 20.4793 27.9572 20.8591 27.4669 21.7293H25.4434L26.3688 13.8564H34.3798V15.7003H28.1506L27.6671 19.6506H27.8052C28.3992 19.0981 29.3867 18.7113 30.4641 18.7113C33.1298 18.7113 35.0981 20.6796 35.0912 23.4213C35.0981 26.1975 32.9986 28.1934 30.0635 28.1934Z" fill="white"/>
</svg>
