<svg width="58" height="42" viewBox="0 0 58 42" fill="none" xmlns="http://www.w3.org/2000/svg">
<rect x="16" y="7" width="40" height="27" rx="13.5" fill="#141414"/>
<path d="M31.616 13.8564V28H29.4613V16.011H29.3785L26.0014 18.2141V16.163L29.5166 13.8564H31.616ZM40.3253 28.1934C37.7148 28.1727 34.98 26.6257 34.9869 21.3978C34.9869 16.4738 37.1209 13.663 40.5049 13.663C43.1154 13.663 44.9248 15.2859 45.2563 17.5304H43.1361C42.8461 16.3771 41.9345 15.5414 40.5049 15.5414C38.3226 15.5414 37.0519 17.4475 37.0519 20.645H37.2107C37.9704 19.4365 39.3032 18.732 40.8433 18.732C43.364 18.732 45.3944 20.6657 45.3944 23.3729C45.3944 26.1077 43.3709 28.2141 40.3253 28.1934ZM37.3143 23.4351C37.3143 24.9959 38.5712 26.3909 40.3184 26.3909C42.0242 26.3909 43.3019 25.0649 43.3088 23.4075C43.3019 21.7914 42.0657 20.4724 40.3599 20.4724C38.6403 20.4724 37.3281 21.8536 37.3143 23.4351Z" fill="white"/>
</svg>
