<svg width="58" height="42" viewBox="0 0 58 42" fill="none" xmlns="http://www.w3.org/2000/svg">
<rect x="16" y="7" width="27" height="27" rx="13.5" fill="#141414"/>
<path d="M30.1188 13.663C32.7086 13.6837 35.4365 15.2445 35.4434 20.424C35.4434 25.3826 33.3094 28.1934 29.9185 28.1934C27.3149 28.1934 25.4917 26.5843 25.1602 24.2914H27.2804C27.5773 25.4793 28.489 26.3149 29.9185 26.3149C32.0939 26.3149 33.3785 24.4088 33.3923 21.1768H33.2196C32.453 22.3785 31.1271 23.0967 29.6008 23.0967C27.0663 23.0967 25.0359 21.1561 25.0359 18.4558C25.0359 15.7555 27.0387 13.6423 30.1188 13.663ZM27.1285 18.4213C27.1354 20.058 28.3577 21.3494 30.0773 21.3494C31.7762 21.3494 33.1022 19.9544 33.1022 18.3936C33.1022 16.8605 31.8453 15.4655 30.1188 15.4655C28.4061 15.4655 27.1146 16.7914 27.1285 18.4213Z" fill="white"/>
</svg>
