<svg width="48" height="48" viewBox="0 0 48 48" fill="none" xmlns="http://www.w3.org/2000/svg">
<path d="M23.9969 32.336H33.3767M14.6172 32.336H16.3624C16.8722 32.336 17.1271 32.336 17.367 32.2784C17.5797 32.2273 17.783 32.1431 17.9695 32.0288C18.1799 31.8999 18.3601 31.7196 18.7206 31.3591L31.8134 18.2663C32.6768 17.4029 32.6768 16.0031 31.8134 15.1397C30.9501 14.2763 29.5502 14.2763 28.6869 15.1397L15.594 28.2326C15.2335 28.5931 15.0532 28.7733 14.9243 28.9837C14.8101 29.1702 14.7258 29.3735 14.6748 29.5862C14.6172 29.826 14.6172 30.081 14.6172 30.5908V32.336Z" stroke="black" stroke-width="2.4" stroke-linecap="round" stroke-linejoin="round"/>
<rect x="1.2" y="1.2" width="45.6" height="45.6" rx="10.8" stroke="black" stroke-width="2.4"/>
</svg>
