<svg width="24" height="24" viewBox="0 0 24 24" fill="none" xmlns="http://www.w3.org/2000/svg">
<path fill-rule="evenodd" clip-rule="evenodd" d="M12 22C17.5228 22 22 17.5228 22 12C22 6.47715 17.5228 2 12 2C6.47715 2 2 6.47715 2 12C2 17.5228 6.47715 22 12 22ZM16.2426 7.75737C16.6331 8.1479 16.6331 8.78106 16.2426 9.17158L13.4141 12.0001L16.2425 14.8285C16.6331 15.219 16.6331 15.8522 16.2425 16.2427C15.852 16.6332 15.2188 16.6332 14.8283 16.2427L11.9999 13.4143L9.17153 16.2427C8.78101 16.6332 8.14784 16.6332 7.75732 16.2427C7.36679 15.8521 7.36679 15.219 7.75732 14.8284L10.5857 12.0001L7.75725 9.17161C7.36672 8.78109 7.36672 8.14792 7.75725 7.7574C8.14777 7.36688 8.78094 7.36688 9.17146 7.7574L11.9999 10.5858L14.8284 7.75737C15.2189 7.36685 15.8521 7.36685 16.2426 7.75737Z" fill="#292929"/>
</svg>
