<svg width="115" height="38" viewBox="0 0 115 38" fill="none" xmlns="http://www.w3.org/2000/svg">
<rect width="115" height="38" rx="4" fill="#FB4747"/>
<path d="M24.9985 26.3324H33.2471M16.75 26.3324H18.2847C18.7331 26.3324 18.9572 26.3324 19.1682 26.2818C19.3552 26.2369 19.534 26.1628 19.698 26.0623C19.883 25.9489 20.0415 25.7904 20.3585 25.4734L31.8724 13.9596C32.6316 13.2003 32.6316 11.9693 31.8724 11.2101C31.1131 10.4508 29.8821 10.4508 29.1228 11.2101L17.609 22.7239C17.292 23.0409 17.1335 23.1994 17.0201 23.3844C16.9196 23.5484 16.8455 23.7272 16.8006 23.9142C16.75 24.1252 16.75 24.3494 16.75 24.7977V26.3324Z" stroke="white" stroke-width="1.83301" stroke-linecap="round" stroke-linejoin="round"/>
<path d="M49.7585 12.4558C51.8082 12.4558 53.2502 13.5773 53.2613 15.2459C53.2502 16.6713 52.1618 17.7155 50.5375 17.9641V19.2182C51.7751 19.1464 53.0237 19.0359 54.1839 18.8646L54.3 19.9586C51.3607 20.489 48.0569 20.5387 45.6591 20.5387L45.4933 19.3343C46.5375 19.3343 47.764 19.3287 49.0513 19.2845V17.9751C47.3828 17.7431 46.2668 16.6934 46.2779 15.2459C46.2668 13.5773 47.7088 12.4558 49.7585 12.4558ZM47.4712 25.5276V21.605H48.9629V24.3066H57.0292V25.5276H47.4712ZM47.6591 15.2459C47.648 16.2403 48.5265 16.8867 49.7585 16.8978C51.0071 16.8867 51.8524 16.2403 51.8635 15.2459C51.8524 14.2348 51.0071 13.5939 49.7585 13.5884C48.5265 13.5939 47.648 14.2348 47.6591 15.2459ZM55.0458 22.5442V11.837H56.5265V16.4669H58.521V17.7155H56.5265V22.5442H55.0458ZM72.1557 22.9144V24.1464H59.3436V22.9144H62.8408V20.4337H60.9016V15.9807H69.1226V14.0304H60.8739V12.8204H70.5866V17.1906H62.3767V19.2182H70.9126V20.4337H68.7911V22.9144H72.1557ZM64.2828 22.9144H67.3325V20.4337H64.2828V22.9144ZM84.0778 11.826V17.5H86.3209V18.732H84.0778V25.826H82.6081V11.826H84.0778ZM73.0943 15.2293V14.0193H76.5474V12.0083H78.028V14.0193H81.3872V15.2293H73.0943ZM73.8126 19.5221C73.807 17.6105 75.2767 16.2624 77.2988 16.2624C79.2988 16.2624 80.7684 17.6105 80.7739 19.5221C80.7684 21.4392 79.2988 22.7707 77.2988 22.7762C75.2767 22.7707 73.807 21.4392 73.8126 19.5221ZM75.2325 19.5221C75.2214 20.732 76.0999 21.5442 77.2988 21.5387C78.4811 21.5442 79.3485 20.732 79.3595 19.5221C79.3485 18.3177 78.4811 17.4889 77.2988 17.4889C76.0999 17.4889 75.2214 18.3177 75.2325 19.5221ZM98.6352 11.826V25.826H97.1435V11.826H98.6352ZM87.1324 22.0746C90.8562 20.3066 92.6683 17.7818 92.9611 14.5166H87.812V13.3343H94.4749C94.4639 17.4282 92.7236 20.9807 87.9169 23.2735L87.1324 22.0746Z" fill="white"/>
</svg>
