<svg width="88" height="48" viewBox="0 0 88 48" fill="none" xmlns="http://www.w3.org/2000/svg">
<rect x="1.2" y="1.2" width="85.6" height="45.6" rx="10.8" stroke="#292929" stroke-width="2.4"/>
<path d="M26.786 32.336H36.1657M17.4062 32.336H19.1515C19.6613 32.336 19.9162 32.336 20.1561 32.2784C20.3688 32.2273 20.5721 32.1431 20.7586 32.0288C20.9689 31.8999 21.1492 31.7196 21.5097 31.3591L34.6025 18.2663C35.4659 17.4029 35.4659 16.0031 34.6025 15.1397C33.7391 14.2763 32.3393 14.2763 31.4759 15.1397L18.3831 28.2326C18.0226 28.5931 17.8423 28.7733 17.7134 28.9837C17.5991 29.1702 17.5149 29.3735 17.4638 29.5862C17.4062 29.826 17.4062 30.081 17.4062 30.5908V32.336Z" stroke="#292929" stroke-width="2.4" stroke-linecap="round" stroke-linejoin="round"/>
<path d="M57.9066 16.826V27.2127H56.4259V23.3564H54.2326V22.1188H56.4259V20.6381H54.2326V19.4282H56.4259V16.826H57.9066ZM46.2547 23.9862C46.7795 23.9862 47.3486 23.9807 47.9508 23.9751V19.1188H46.6359V17.9144H54.0723V19.1188H52.7408V23.8094C53.3265 23.7652 53.9066 23.7155 54.4536 23.6547L54.5199 24.7486C51.8348 25.174 48.6801 25.2238 46.4315 25.2348L46.2547 23.9862ZM48.785 30.5387V26.3785H50.2823V29.3232H58.2712V30.5387H48.785ZM49.3928 23.953C50.0226 23.9365 50.669 23.9199 51.3154 23.8867V19.1188H49.3928V23.953ZM65.2485 19.0635C65.2485 20.8039 66.6076 22.4171 68.7623 23.047L68.0165 24.2072C66.3811 23.7044 65.1436 22.6381 64.5082 21.268C63.8839 22.7376 62.6297 23.8978 60.9502 24.4503L60.1933 23.2845C62.3811 22.616 63.7402 20.9033 63.7513 19.0635V18.9088H60.6021V17.7099H68.3314V18.9088H65.2485V19.0635ZM62.5137 30.6492V25.0635H63.9668V26.6271H70.2043V25.0635H71.6795V30.6492H62.5137ZM63.9668 29.4448H70.2043V27.7928H63.9668V29.4448ZM70.1933 24.4061V16.826H71.6795V24.4061H70.1933Z" fill="#292929"/>
</svg>
