<svg width="20" height="20" viewBox="0 0 20 20" fill="none" xmlns="http://www.w3.org/2000/svg">
<path d="M12.9859 16.6172H5.97412C5.51582 16.6172 5.28666 16.6172 5.18055 16.5266C5.08848 16.4479 5.03962 16.33 5.04912 16.2093C5.06007 16.0701 5.22211 15.9081 5.54618 15.584L11.9787 9.15147C12.2783 8.85188 12.4281 8.70208 12.6009 8.64596C12.7528 8.59659 12.9165 8.59659 13.0684 8.64596C13.2411 8.70208 13.3909 8.85188 13.6905 9.15147L16.6172 12.0781V12.9859M12.9859 16.6172C14.257 16.6172 14.8925 16.6172 15.378 16.3698C15.805 16.1522 16.1522 15.805 16.3698 15.378C16.6172 14.8925 16.6172 14.257 16.6172 12.9859M12.9859 16.6172H6.63125C5.36019 16.6172 4.72467 16.6172 4.23919 16.3698C3.81215 16.1522 3.46495 15.805 3.24736 15.378C3 14.8925 3 14.257 3 12.9859V6.63125C3 5.36019 3 4.72467 3.24736 4.23919C3.46495 3.81215 3.81215 3.46495 4.23919 3.24736C4.72467 3 5.36019 3 6.63125 3H12.9859C14.257 3 14.8925 3 15.378 3.24736C15.805 3.46495 16.1522 3.81215 16.3698 4.23919C16.6172 4.72467 16.6172 5.36019 16.6172 6.63125V12.9859M8.67383 7.16081C8.67383 7.99643 7.99643 8.67383 7.16081 8.67383C6.32519 8.67383 5.64779 7.99643 5.64779 7.16081C5.64779 6.32519 6.32519 5.64779 7.16081 5.64779C7.99643 5.64779 8.67383 6.32519 8.67383 7.16081Z" stroke-width="1.8" stroke-linecap="round" stroke-linejoin="round"/>
</svg>
