<svg width="29" height="29" viewBox="0 0 29 29" fill="none" xmlns="http://www.w3.org/2000/svg">
<path fill-rule="evenodd" clip-rule="evenodd" d="M16.5968 3.62484C15.6666 2.01372 13.3412 2.01373 12.411 3.62484L1.94652 21.7498C1.01634 23.3609 2.17906 25.3748 4.03941 25.3748H24.9684C26.8287 25.3748 27.9914 23.361 27.0613 21.7498L16.5968 3.62484ZM13.2954 10.8748C13.2954 10.2075 13.8364 9.6665 14.5037 9.6665C15.171 9.6665 15.712 10.2075 15.712 10.8748V16.9165C15.712 17.5838 15.171 18.1248 14.5037 18.1248C13.8364 18.1248 13.2954 17.5838 13.2954 16.9165V10.8748ZM14.5037 19.3332C13.8364 19.3332 13.2954 19.8742 13.2954 20.5415C13.2954 21.2088 13.8364 21.7498 14.5037 21.7498C15.171 21.7498 15.712 21.2088 15.712 20.5415C15.712 19.8742 15.171 19.3332 14.5037 19.3332Z" fill="#FB4747"/>
</svg>
